<svg xmlns="http://www.w3.org/2000/svg" viewBox="0 0 300 215">
    <g fill="none" stroke="#000000" stroke-width="3" stroke-linejoin="round">
        <path d="M47,8.3l104.5,45.3l28.6,44.8l-15,30l-6.9-4.2l1.1-10.2l-21.1-53.2L47,8.3z"/>
        <path d="M67.8,1.5L161,52.7l26,41.1l-6.9,4.6l-28.6-44.8l-36.4-15.8L67.8,1.5z"/>
        <path d="M77.6,169.4l76.3-69.1l5.4,13.7l-1.1,10.2l6.9,4.2L112.8,185L77.6,169.4z"/>
        <path d="M140,212.8l45.6-55.2l-20.5-29.2L112.8,185L140,212.8z"/>
        <path d="M165.1,128.4l-6.9-4.2l5.9-53.2l10.9,37.7L165.1,128.4z"/>
        <path d="M185.6,157.6l64.7,0.7l-85.2-29.9L185.6,157.6z"/>
        <path d="M187,93.8l20.7,23.1l49.2,26.5l-6.6,14.9l-85.2-29.9l15-30L187,93.8z"/>
        <path d="M189.2,69.1l-5.3,19.7l-3.6-5.7L189.2,69.1z"/>
    </g>
</svg>
